<svg viewBox="0 0 18 18" xmlns="http://www.w3.org/2000/svg">
                <path d="M5.79942 11.6369H5.80024C5.80093 11.6369 5.80161 11.6367 5.8023 11.6367H15.3633C15.5987 11.6367 15.8056 11.4806 15.8703 11.2543L17.9797 3.87144C18.0251 3.71228 17.9933 3.54117 17.8937 3.40906C17.794 3.27695 17.6381 3.19922 17.4727 3.19922H4.58323L4.20626 1.50279C4.15257 1.26151 3.93861 1.08984 3.69141 1.08984H0.527351C0.236076 1.08984 7.62939e-06 1.32591 7.62939e-06 1.61719C7.62939e-06 1.90846 0.236076 2.14453 0.527351 2.14453H3.26844C3.33518 2.44514 5.0724 10.2627 5.17237 10.7125C4.61193 10.9561 4.21876 11.5149 4.21876 12.1641C4.21876 13.0364 4.92847 13.7461 5.80079 13.7461H15.3633C15.6546 13.7461 15.8906 13.51 15.8906 13.2188C15.8906 12.9275 15.6546 12.6914 15.3633 12.6914H5.80079C5.51006 12.6914 5.27345 12.4548 5.27345 12.1641C5.27345 11.8737 5.50924 11.6375 5.79942 11.6369ZM16.7735 4.25391L14.9654 10.582H6.22376L4.81751 4.25391H16.7735Z"></path>
                <path d="M5.27342 15.3281C5.27342 16.2004 5.98314 16.9102 6.85545 16.9102C7.72777 16.9102 8.43749 16.2004 8.43749 15.3281C8.43749 14.4558 7.72777 13.7461 6.85545 13.7461C5.98314 13.7461 5.27342 14.4558 5.27342 15.3281ZM6.85545 14.8008C7.14618 14.8008 7.3828 15.0374 7.3828 15.3281C7.3828 15.6189 7.14618 15.8555 6.85545 15.8555C6.56473 15.8555 6.32811 15.6189 6.32811 15.3281C6.32811 15.0374 6.56473 14.8008 6.85545 14.8008Z"></path>
                <path d="M12.7266 15.3281C12.7266 16.2004 13.4363 16.9102 14.3086 16.9102C15.1809 16.9102 15.8906 16.2004 15.8906 15.3281C15.8906 14.4558 15.1809 13.7461 14.3086 13.7461C13.4363 13.7461 12.7266 14.4558 12.7266 15.3281ZM14.3086 14.8008C14.5993 14.8008 14.8359 15.0374 14.8359 15.3281C14.8359 15.6189 14.5993 15.8555 14.3086 15.8555C14.0179 15.8555 13.7812 15.6189 13.7812 15.3281C13.7812 15.0374 14.0179 14.8008 14.3086 14.8008Z"></path>
            </svg>