<svg class="svg-icon" aria-hidden="true" role="img" focusable="false" width="24" height="24" viewBox="0 0 18 18" xmlns="http://www.w3.org/2000/svg"><path d="M13.1275 0H4.87243C2.18573 0 0 2.18573 0 4.87243V13.1277C0 15.8142 2.18573 18 4.87243 18H13.1277C15.8142 18 18 15.8142 18 13.1277V4.87243C18 2.18573 15.8142 0 13.1275 0V0ZM8.99998 13.9217C6.28609 13.9217 4.07825 11.7139 4.07825 8.99998C4.07825 6.28609 6.28609 4.07825 8.99998 4.07825C11.7139 4.07825 13.9217 6.28609 13.9217 8.99998C13.9217 11.7139 11.7139 13.9217 8.99998 13.9217ZM14.0394 5.23896C13.2374 5.23896 12.5851 4.58665 12.5851 3.78465C12.5851 2.98265 13.2374 2.3302 14.0394 2.3302C14.8414 2.3302 15.4939 2.98265 15.4939 3.78465C15.4939 4.58665 14.8414 5.23896 14.0394 5.23896Z"></path><path d="M8.99931 5.13347C6.86741 5.13347 5.13281 6.86794 5.13281 8.99997C5.13281 11.1319 6.86741 12.8665 8.99931 12.8665C11.1313 12.8665 12.8658 11.1319 12.8658 8.99997C12.8658 6.86794 11.1313 5.13347 8.99931 5.13347Z"></path><path d="M14.0397 3.38555C13.8197 3.38555 13.6406 3.56463 13.6406 3.78463C13.6406 4.00463 13.8197 4.18371 14.0397 4.18371C14.2598 4.18371 14.4389 4.00477 14.4389 3.78463C14.4389 3.56449 14.2598 3.38555 14.0397 3.38555Z"></path></svg>